<svg xmlns="http://www.w3.org/2000/svg" viewBox="0 0 24 24">
  <path d="M12 2C6.4889971 2 2 6.4889971 2 12C2 17.511003 6.4889971 22 12 22C17.511003 22 22 17.511003 22 12C22 6.4889971 17.511003 2 12 2 z M 12 4C16.430123 4 20 7.5698774 20 12C20 16.430123 16.430123 20 12 20C7.5698774 20 4 16.430123 4 12C4 7.5698774 7.5698774 4 12 4 z M 12.126953 8C11.705953 8 11.31875 8.0522031 10.96875 8.1582031C10.61775 8.2632031 10.315547 8.4106094 10.060547 8.5996094C9.8055469 8.7886094 9.6077969 9.0181094 9.4667969 9.2871094C9.3257969 9.5561094 9.2558594 9.8537344 9.2558594 10.177734C9.2558594 10.516734 9.3239375 10.811453 9.4609375 11.064453C9.5979375 11.317453 9.7844844 11.542328 10.021484 11.736328C10.258484 11.930328 10.535562 12.097234 10.851562 12.240234C11.166562 12.383234 11.502375 12.512953 11.859375 12.626953C12.172375 12.725953 12.428953 12.819203 12.626953 12.908203C12.824953 12.997203 12.979797 13.088641 13.091797 13.181641C13.203797 13.274641 13.279359 13.375375 13.318359 13.484375C13.357359 13.592375 13.376953 13.714609 13.376953 13.849609C13.376953 13.974609 13.352688 14.092172 13.304688 14.201172C13.256687 14.310172 13.182031 14.404422 13.082031 14.482422C12.982031 14.560422 12.856125 14.621016 12.703125 14.666016C12.550125 14.711016 12.369109 14.732422 12.162109 14.732422C11.930109 14.732422 11.72025 14.708109 11.53125 14.662109C11.34225 14.616109 11.182828 14.542406 11.048828 14.441406C10.914828 14.340406 10.809375 14.206969 10.734375 14.042969C10.659375 13.878969 10.623047 13.678359 10.623047 13.443359L9.0136719 13.443359C9.0136719 13.735359 9.0546719 14.001188 9.1386719 14.242188C9.2226719 14.482188 9.3383281 14.697719 9.4863281 14.886719C9.6343281 15.075719 9.8078125 15.239906 10.007812 15.378906C10.207813 15.517906 10.425203 15.633563 10.658203 15.726562C10.891203 15.819563 11.135578 15.888594 11.392578 15.933594C11.649578 15.978594 11.905109 16 12.162109 16C12.590109 16 12.979219 15.951563 13.324219 15.851562C13.671219 15.753562 13.968844 15.613687 14.214844 15.429688C14.460844 15.246688 14.649203 15.020906 14.783203 14.753906C14.917203 14.486906 14.984375 14.181844 14.984375 13.839844C14.984375 13.518844 14.929359 13.231516 14.818359 12.978516C14.708359 12.725516 14.546078 12.497922 14.330078 12.294922C14.115078 12.091922 13.845437 11.909047 13.523438 11.748047C13.201437 11.587047 12.826344 11.442547 12.402344 11.310547C11.896344 11.160547 11.513953 10.999172 11.251953 10.826172C10.989953 10.653172 10.857422 10.438641 10.857422 10.181641C10.857422 10.056641 10.883547 9.939125 10.935547 9.828125C10.987547 9.717125 11.064016 9.6210625 11.166016 9.5390625C11.268016 9.4570625 11.395781 9.3946563 11.550781 9.3476562C11.705781 9.3006562 11.889609 9.2773438 12.099609 9.2773438C12.317609 9.2773438 12.506016 9.304375 12.666016 9.359375C12.826016 9.415375 12.959406 9.49375 13.066406 9.59375C13.173406 9.69375 13.252688 9.8121719 13.304688 9.9511719C13.356688 10.090172 13.382812 10.24225 13.382812 10.40625L14.986328 10.40625C14.986328 10.05725 14.919203 9.7354063 14.783203 9.4414062C14.647203 9.1474062 14.455078 8.8936875 14.205078 8.6796875C13.955078 8.4656875 13.655734 8.2986875 13.302734 8.1796875C12.950734 8.0606875 12.557953 8 12.126953 8 z" fill="#FFFFFF" />
</svg>